<svg width="45" height="45" viewBox="0 0 45 45" fill="none" xmlns="http://www.w3.org/2000/svg">
<g clip-path="url(#clip0_54_2603)">
<path d="M17.1027 33.6366C13.9697 33.6366 11.4209 36.1854 11.4209 39.3183C11.4209 42.4513 13.9697 45.0001 17.1027 45.0001C20.2356 45.0001 22.7844 42.4513 22.7844 39.3183C22.7844 36.1854 20.2355 33.6366 17.1027 33.6366ZM17.1027 41.591C15.8492 41.591 14.83 40.5717 14.83 39.3183C14.83 38.0649 15.8492 37.0457 17.1027 37.0457C18.3554 37.0457 19.3753 38.0649 19.3753 39.3183C19.3753 40.5717 18.3561 41.591 17.1027 41.591Z" fill="black"/>
<path d="M33.9205 33.6366C30.7876 33.6366 28.2388 36.1854 28.2388 39.3183C28.2388 42.4513 30.7876 45.0001 33.9205 45.0001C37.0535 45.0001 39.6023 42.4513 39.6023 39.3183C39.6023 36.1854 37.0535 33.6366 33.9205 33.6366ZM33.9205 41.591C32.6671 41.591 31.6479 40.5717 31.6479 39.3183C31.6479 38.0649 32.6671 37.0457 33.9205 37.0457C35.1739 37.0457 36.1932 38.0649 36.1932 39.3183C36.1932 40.5717 35.1739 41.591 33.9205 41.591Z" fill="black"/>
<path d="M43.7773 11.0983C43.4534 10.6914 42.9625 10.4546 42.4432 10.4546H12.5971L11.0477 2.62397C10.9119 1.93816 10.371 1.40466 9.68294 1.27854L2.86486 0.0285663C1.93709 -0.142468 1.05071 0.471797 0.88082 1.3979C0.710928 2.324 1.32396 3.21204 2.25015 3.38193L7.92848 4.42282L12.9307 29.7059C13.0886 30.5043 13.7892 31.0798 14.6028 31.0798H38.466C39.2598 31.0798 39.9479 30.5326 40.1268 29.7582L44.104 12.5426C44.221 12.0363 44.1006 11.5045 43.7773 11.0983ZM37.1103 27.6708H16.0027L13.2715 13.8642H40.2994L37.1103 27.6708Z" fill="black"/>
</g>
<defs>
<clipPath id="clip0_54_2603">
<rect width="45" height="45" fill="white"/>
</clipPath>
</defs>
</svg>
