<svg width="395" height="295" viewBox="0 0 395 295" fill="none" xmlns="http://www.w3.org/2000/svg">
<path d="M54.9591 23.1067L49.0734 23.5271C46.3828 24.7043 45.5701 28.5019 45.5 30.2536L48.8632 35.2984L52.0162 35.7188L53.9081 39.7126L48.8632 47.4901L75.3486 64.9368L76.6098 64.7266C80.1412 62.5405 94.3368 63.8158 100.993 64.7266L112.344 66.6184L121.173 67.4592L133.995 73.7653L132.523 75.8673L131.683 81.1224L128.74 85.957V88.8998C128.235 90.7496 128.95 92.4732 129.37 93.1038C133.785 92.0528 137.148 94.5753 135.676 94.7855C134.499 94.9536 134.625 96.6773 134.836 97.5181L139.46 102.563C138.619 103.067 138.689 104.595 138.83 105.296C139.334 107.986 142.683 110.06 144.295 110.761L157.537 115.595L164.684 117.487C164.404 118.819 163.759 122.196 163.423 125.054C163.087 127.913 165.245 127.647 166.366 127.157L165.735 128.838C165.735 130.183 163.213 137.526 161.952 141.03L158.378 145.234L154.174 150.909C152.997 157.468 158.028 160.649 160.69 161.419L167.207 163.311V164.572L165.315 169.827L167.207 172.77L155.015 175.923H151.231L144.715 177.395L140.301 172.77L133.785 167.095L128.53 168.776L127.268 172.56L125.166 178.025L122.854 183.491L120.542 190.637L118.23 198.415L117.809 201.358L119.701 204.931L122.854 210.607L129.16 224.27L143.034 245.08L148.078 245.5L193.692 221.537L205.463 214.39L217.655 208.925L250.447 195.892L272.097 187.695C275.18 186.573 282.061 184.079 284.92 183.07C287.778 182.061 300.685 175.643 306.781 172.56L311.405 169.197L315.819 166.674L321.915 163.732L329.482 160.579L336.209 158.477L340.623 156.585L346.509 151.96L345.458 150.279C348.485 147.924 348.821 144.113 348.611 142.501L345.878 140.609L341.674 137.036V132.412L342.935 114.124L341.674 111.391V109.71V102.773L343.356 98.3589L343.776 86.5876L342.305 83.4346C341.534 80.8421 339.95 75.573 339.782 75.2367C339.614 74.9004 338.871 69.6313 338.521 67.0388L335.158 52.1145L333.266 46.8595L336.209 34.2474L326.329 28.9924L319.393 25.2087L308.883 21.0047L299.003 16.8007L289.754 11.966L275.671 4.81917H269.995L265.161 3.13755L259.695 2.71715H254.861C253.53 2.50695 250.489 1.96043 248.975 1.45595C247.462 0.951464 237.975 0.965477 233.42 1.03554L223.961 2.08655L213.241 2.92736L206.094 4.39877L193.482 5.44978L186.966 6.29059L176.876 6.92119L167.837 7.9722L163.633 8.813L153.964 10.4946L140.301 12.5966L124.326 14.2782L106.879 15.9599L74.2976 18.6925L69.0426 20.7945H63.9977L63.3671 22.4761H56.6407L54.9591 23.1067Z" fill="#2B3D41" stroke="#270672"/>
<path fill-rule="evenodd" clip-rule="evenodd" d="M214.85 44.5864C215.299 44.8059 215.749 45.0254 216.274 45.318C218.448 46.7813 219.873 48.025 223.171 50.7319C224.146 51.683 225.27 53.2194 226.095 54.1704C227.894 56.3652 229.169 57.9016 229.394 59.7306C229.919 63.3886 230.443 65.4371 231.868 69.1683C232.018 69.5341 232.618 70.0462 232.992 70.4852C233.892 71.5826 234.267 73.3384 235.916 74.2895C236.816 74.8016 236.966 74.8748 237.266 75.0943C237.715 75.4601 236.966 76.777 234.642 76.4843C235.841 77.0696 235.691 78.3865 233.967 78.4597C230.593 78.606 228.494 76.7038 228.044 76.1917C227.819 75.9722 227.145 76.8501 225.945 77.2891C224.746 77.8744 223.096 77.2891 221.822 77.5086C220.622 77.7281 219.048 78.4597 217.773 78.5328C215.524 78.606 215.224 77.0696 215.224 75.7527V75.1675C215 75.9722 214.175 77.3623 214.175 77.3623C213.875 78.0207 213.425 78.8255 212.601 79.1181L210.202 79.4107C208.327 80.2155 206.453 80.8008 204.504 81.4592C203.379 81.6787 202.105 81.4592 201.28 80.8008C200.605 80.2887 200.231 79.6302 199.856 78.9718C199.481 78.8255 198.956 78.9718 198.506 78.8255C198.131 78.7523 197.906 78.4597 197.682 78.2402L196.032 75.5333C195.882 75.1675 195.882 74.6553 196.032 74.2895C196.332 73.7042 197.007 73.4116 197.682 73.4116C198.881 73.3384 200.231 72.9726 201.43 73.4116C201.955 72.8263 202.779 72.8995 203.529 72.7532C203.229 72.3142 202.779 72.0947 202.405 71.7289C200.231 72.241 197.831 71.8752 195.732 71.5094C193.783 71.0705 192.134 72.1679 190.185 71.8752L189.585 73.119C188.685 74.0701 188.61 75.6796 187.261 76.338C186.286 76.5575 185.536 77.2159 184.712 77.6549C183.212 78.4597 181.188 78.0939 179.539 77.8012C178.864 77.7281 178.414 77.8012 177.814 78.0207C177.29 78.3865 176.69 78.9718 176.09 79.4107C175.116 79.7766 174.291 80.5813 173.241 80.6545C172.642 80.6545 172.042 80.2887 171.442 80.435C170.692 81.2398 170.318 82.5566 169.118 82.9224C167.918 83.2882 166.419 82.9956 165.22 82.703C164.845 82.8493 164.62 83.1419 164.17 83.0688C163.345 82.8493 162.521 82.6298 161.771 82.1908C161.471 81.8982 161.396 81.5324 161.321 81.2398C161.321 80.7276 161.771 80.2887 161.996 79.8497C162.071 79.3376 162.071 78.606 162.296 78.0939C162.671 77.2891 163.495 76.777 164.32 76.4112C164.395 75.8259 164.77 75.3138 165.295 75.0211C166.269 74.509 167.319 73.3384 168.593 73.9969L169.943 75.0943C171.142 74.5822 170.842 73.4116 171.442 72.4605C171.742 71.8021 172.117 71.0705 172.866 71.0705C173.391 70.9973 173.991 71.1436 174.516 71.0705C175.266 70.851 176.09 70.5584 176.615 69.9731L176.54 69.5341C175.79 68.1441 175.565 66.4614 175.49 64.7787C174.141 64.925 172.717 65.1445 171.292 64.8518C169.193 64.5592 167.169 62.9497 166.344 60.9012C165.444 58.9259 165.819 56.1458 167.244 54.4631C168.368 53.1462 169.643 51.9756 170.992 50.9514C170.542 50.8051 170.018 50.8782 169.568 50.7319C167.619 50.4393 165.669 48.7566 165.22 46.8544C164.92 45.6107 165.22 44.4401 165.819 43.4159C166.044 43.1964 166.269 42.9769 166.644 43.1232C167.619 43.489 167.918 44.0012 168.818 44.4401L169.343 44.7328C171.817 45.5375 175.116 45.5375 176.09 48.5371C176.69 50.8782 175.191 52.6341 173.466 53.951C172.117 54.9021 170.767 56.0726 170.093 57.4627C169.793 58.4869 169.943 59.5111 170.842 60.2427C171.742 61.1207 173.316 61.1207 174.441 60.6817C176.54 59.8038 178.489 58.4869 180.363 57.0969C182.163 55.78 184.337 55.2678 186.661 55.1947C187.711 54.9752 188.61 54.5362 189.435 53.8778C190.859 52.5609 192.359 51.4635 194.158 51.0245C194.983 50.8782 195.807 50.8051 196.632 50.7319C197.307 50.4393 197.757 49.6345 198.281 49.2687C200.755 47.1471 204.054 47.2202 206.678 45.5375C208.177 44.4401 209.827 43.7085 211.776 43.7817C212.676 43.8548 213.5 44.0012 214.25 44.2938L214.85 44.5864ZM217.324 69.461C215.674 69.5341 214.625 69.8999 213.5 70.0462C213.575 71.0705 214.175 71.9484 215 73.0458C215.449 71.3631 216.874 70.7047 217.324 69.461ZM259.532 69.8268C260.281 70.9242 260.731 72.0216 261.406 73.1921C262.081 71.9484 262.68 70.7778 263.28 70.0462C263.205 69.9731 261.256 70.1926 259.532 69.8268ZM261.106 75.2406C261.031 75.4601 260.881 75.5333 260.581 75.5333C260.806 76.5575 260.057 78.4597 258.182 78.5328C256.908 78.606 254.809 77.3623 253.609 77.2891C252.335 77.2159 250.011 78.167 248.661 76.1917C246.862 78.3133 244.763 78.8986 242.963 78.8255C241.914 78.8255 240.789 78.2402 242.364 76.9233C238.915 78.0207 238.915 75.7527 239.515 75.3138C239.89 75.0211 240.339 74.8016 241.614 73.5579C246.412 68.6562 244.613 60.1696 249.861 54.5362C251.885 52.3414 253.534 51.0977 257.657 48.2445C259.082 47.2934 260.506 45.9033 261.856 44.9522L261.931 45.0986V45.0254C262.755 44.4401 263.505 43.8548 264.405 43.6354C266.279 43.4159 268.003 44.0012 269.428 44.9522C270.177 45.4644 270.777 46.0496 271.377 46.7813C271.827 47.2202 272.502 47.2202 273.101 47.4397C274.826 47.7323 276.325 48.3908 277.749 49.2687C278.724 49.854 279.549 50.8782 280.748 51.0245C282.173 51.244 283.447 51.683 284.722 52.4146C286.221 53.3657 287.571 54.5362 289.37 54.8289C292.968 55.1947 295.967 57.17 298.816 59.1453C300.465 60.0964 302.415 61.1938 304.439 60.5354C305.038 60.3159 305.488 59.8038 305.638 59.2917C305.788 57.9748 304.964 56.9505 304.139 55.9994C302.415 54.0241 299.416 52.3414 299.791 49.4882C300.315 47.3665 302.714 46.1228 304.589 45.5375C305.638 45.1717 306.913 45.318 307.812 44.4401C308.262 44.1475 308.487 43.1232 309.237 43.489C309.837 43.8548 309.912 44.5864 309.987 45.2449C310.286 47.2934 309.837 49.3419 307.887 50.5124C306.988 51.0977 306.013 51.3172 304.964 51.5367C306.538 52.7804 308.112 54.3168 309.012 56.0726C309.537 57.0969 309.837 57.9748 309.912 59.1453C309.837 61.3402 308.487 63.2423 306.538 64.3397C305.413 64.925 304.139 65.1445 302.789 65.1445C302.265 65.1445 301.815 64.9982 301.365 64.9982C301.59 66.0224 301.59 67.4125 301.365 68.583C301.29 69.1683 300.915 69.8268 300.915 70.5584C301.215 70.9242 301.665 70.9242 302.04 70.9242C303.014 70.9242 304.214 70.851 304.739 71.8752C305.188 72.8263 305.413 73.9237 305.788 74.8748C305.938 75.0211 306.013 75.3869 306.238 75.3138C306.913 74.7285 307.587 73.9237 308.562 74.1432C309.462 74.7285 310.361 75.3869 311.261 76.0454C311.486 76.2649 311.561 76.5575 311.636 76.9233C312.386 77.2159 313.36 77.7281 313.585 78.606C313.735 79.1913 313.66 79.7766 313.81 80.2887C314.035 80.874 314.635 81.6056 314.185 82.3372L313.885 82.5566L311.036 83.4346C310.811 83.4346 310.586 83.2882 310.361 83.0688C308.862 82.9956 307.063 83.4346 305.863 82.4103C305.338 81.9714 304.964 81.4592 304.589 80.874C303.689 81.3129 302.415 81.6056 301.515 81.0203C299.641 79.6302 297.766 78.2402 295.217 78.3133C294.093 78.5328 292.743 78.8255 291.619 78.3865C290.569 77.6549 289.37 77.2891 288.545 76.1917C287.346 74.948 287.346 73.4848 286.896 71.9484C285.246 72.3142 283.447 72.0947 281.798 72.0216C280.448 71.9484 279.174 72.1679 277.899 72.4605C276.325 72.7532 274.601 72.8995 272.951 72.8263L272.127 73.4116C272.502 73.4848 272.876 73.4848 273.176 73.7774L273.476 74.0701C274.826 74.2164 276.4 73.9969 277.674 74.2895C277.974 74.3627 278.274 74.6553 278.424 74.948C278.574 75.3138 278.574 75.7527 278.349 76.0454C277.674 76.9233 277.3 77.9475 276.4 78.6791C276.175 78.9718 275.5 78.606 275.425 79.1181C275.125 80.435 273.851 81.5324 272.577 81.825C272.052 81.8982 271.452 81.825 271.002 81.6787C269.428 81.1666 267.853 80.7276 266.279 80.2887C265.754 80.1424 265.304 79.6302 264.855 79.3376C264.18 79.3376 263.205 79.5571 262.755 78.9718C262.531 78.8255 262.306 78.3134 262.231 78.0939C261.706 77.4354 261.331 76.2649 261.106 75.2406Z" fill="#5C3C6A"/>
<path fill-rule="evenodd" clip-rule="evenodd" d="M214.167 54.2853C214.617 55.3825 214.617 56.8455 214.317 58.0158C214.242 58.089 214.167 58.089 214.092 58.0158C213.867 56.9918 213.642 55.9677 213.267 54.9436C213.042 54.3584 212.292 53.8464 212.592 53.188C212.742 53.0417 213.042 53.0417 213.267 53.1149C213.642 53.4806 213.867 53.8464 214.167 54.2853ZM226.165 64.5261C226.99 65.477 227.59 66.5011 227.29 67.7446C227.14 67.9641 227.215 68.4029 226.84 68.4761C226.69 68.5492 226.54 68.4029 226.54 68.2566C226.465 67.5983 226.465 66.8668 226.09 66.3548C225.64 65.9159 225.115 65.0381 224.365 65.0381C223.841 65.1844 223.466 65.7696 223.166 66.1353C223.166 66.2085 223.091 66.2085 223.016 66.1353C222.716 65.4039 223.316 64.8187 223.541 64.2335C223.99 63.7946 223.915 62.5511 224.89 62.9168C225.565 63.3557 225.715 64.0872 226.165 64.5261ZM224.59 73.2307C224.665 73.6696 224.665 74.328 224.215 74.6206C223.766 74.7669 223.166 74.84 222.641 74.7669C222.491 74.6937 222.341 74.6206 222.416 74.4743C222.641 73.8159 223.316 73.0844 224.065 72.9381C224.215 72.9381 224.515 72.9382 224.59 73.2307ZM169.848 46.5315C171.648 46.9704 173.597 46.9704 174.947 48.3602C175.697 49.238 175.772 50.7741 175.172 51.6519C174.122 53.4075 172.023 54.2853 170.748 55.8214C169.473 56.8455 169.023 58.4547 169.398 60.064C169.848 61.4538 171.273 62.4048 172.698 62.4779C174.947 62.5511 176.597 61.4538 178.397 60.4297C180.197 59.1862 181.846 57.577 183.871 57.0649C185.221 56.626 186.721 56.8455 188.07 56.3334C189.495 56.0408 190.62 54.8705 191.745 53.8464C193.02 52.8223 194.52 52.2371 196.169 52.3103C197.669 52.5297 198.494 51.213 199.544 50.3352C201.269 48.7991 203.518 48.6528 205.543 47.775C206.968 47.3362 208.093 46.3121 209.442 45.6537C210.717 45.1417 212.442 44.9954 213.717 45.5074C214.542 45.8732 215.442 46.2389 216.192 46.8241L222.266 51.7982C222.341 52.0177 222.566 52.164 222.716 52.2371C224.44 54.2853 226.24 56.2603 227.665 58.5279C228.115 59.3325 228.34 60.1372 228.565 61.0149C228.865 64.3798 229.765 67.3057 230.89 70.2316C231.189 70.6705 231.789 71.0363 232.089 71.4752C233.064 72.7918 233.664 74.4743 235.239 75.352L236.139 75.7909C236.214 75.8641 236.214 76.0104 236.139 76.0835L235.989 76.2298C234.114 76.5224 232.689 75.4252 231.714 74.1085C231.115 72.9381 230.29 71.6946 228.94 71.1826C228.865 71.1826 228.79 71.2557 228.79 71.2557C228.94 71.6946 229.39 71.9872 229.54 72.353C230.065 73.1576 230.515 74.0354 230.74 74.9132C231.04 75.8641 232.089 76.5224 232.914 77.0345L234.114 77.6197C234.264 77.6928 234.339 77.9122 234.189 78.0585L234.039 78.1317C232.014 78.2048 230.215 77.5465 228.79 76.0835C228.49 75.7178 228.04 75.4252 227.515 75.4252C226.615 76.2298 225.715 76.9613 224.515 77.0345C223.241 76.815 221.891 76.815 220.766 77.2539C219.716 77.6197 218.666 78.0585 217.541 78.0585C217.016 78.0585 216.417 77.8391 216.192 77.3271C216.192 76.6687 215.742 75.9372 216.117 75.2789L216.866 74.1817C216.866 74.0354 216.791 73.8891 216.641 73.8891C216.342 73.8159 215.817 74.328 215.667 73.8159C215.742 72.7187 216.866 71.9872 217.616 71.2557C217.766 70.378 218.141 69.5733 218.816 68.8418C218.816 68.7687 218.741 68.6224 218.591 68.6224C217.616 68.7687 216.641 68.9881 215.592 68.9881C214.767 69.427 213.717 69.7196 212.742 69.427C212.517 69.2807 212.592 69.0613 212.667 68.915C213.717 67.5252 214.092 65.7696 213.792 64.0872C213.717 64.014 213.717 63.8677 213.567 63.8677C213.417 63.8677 213.417 64.014 213.342 64.0872C213.117 65.6964 212.592 66.94 211.692 68.3298C211.017 68.9881 209.967 68.9881 209.068 69.2076C208.843 69.2807 208.618 69.5002 208.618 69.7196C208.618 70.3048 208.993 70.6705 209.218 71.1826L211.167 74.6937C211.242 75.6446 210.792 76.5956 210.567 77.4734C210.642 77.6197 210.792 77.5465 210.942 77.4734C211.617 76.8882 212.067 76.0835 212.367 75.2058C212.442 74.84 212.292 74.4011 212.142 74.1085L210.117 70.1585C210.267 69.9391 210.567 69.9391 210.792 69.8659C211.242 69.8659 211.692 70.0854 212.142 70.2316C212.592 71.402 213.117 72.6456 213.942 73.6696C214.092 74.328 214.317 75.2057 213.867 75.7178C213.417 76.5956 212.967 77.3271 212.367 78.1317C211.842 78.6437 211.092 78.5706 210.342 78.6437H210.117C208.318 79.5947 206.443 80.1799 204.493 80.7651C203.668 81.1308 202.693 80.8382 202.019 80.3262C201.344 79.8141 201.044 79.0826 200.594 78.4243C200.069 77.7659 199.244 78.3511 198.644 77.9854C198.119 77.1808 197.594 76.3761 197.144 75.4983C197.144 75.2789 197.144 75.0595 197.369 74.9132C198.044 74.6937 198.794 74.6937 199.544 74.6206C200.219 74.5474 200.969 74.6937 201.419 75.1326C202.318 76.1567 202.693 77.5465 204.043 78.2049C205.093 78.278 205.993 77.9854 206.893 77.5465C207.418 77.2539 208.018 76.815 208.018 76.1567C207.943 74.84 207.043 73.8159 205.918 73.0845C204.793 72.4993 203.593 71.6946 202.768 70.6705C202.318 70.0854 202.243 69.427 202.019 68.8418C201.944 68.6955 201.644 68.6955 201.569 68.7687C201.119 69.1344 201.494 69.7928 201.494 70.2316C201.569 70.5242 201.719 70.89 201.569 71.1094C200.894 71.6215 199.994 71.3289 199.169 71.402C197.519 71.3289 195.944 70.6705 194.22 70.8168C192.57 70.89 190.32 71.9872 189.12 70.3779C188.52 68.8418 188.67 67.0131 188.97 65.477C188.97 65.3307 188.82 65.1844 188.67 65.1844C188.52 65.1113 188.37 65.1844 188.295 65.3307C187.845 66.8668 187.77 68.5492 187.396 70.1585C186.796 71.5483 185.746 73.0113 184.321 73.7428C183.046 74.4011 181.546 74.6206 179.972 74.7669C177.122 74.84 174.497 75.3521 172.698 77.766C172.548 77.9854 172.323 78.2048 172.398 78.4974C172.473 78.5706 172.698 78.6437 172.773 78.5706C174.722 76.4493 177.197 75.5715 180.047 75.7178C182.746 75.7178 185.446 75.2789 187.171 73.0113C187.62 72.4993 187.92 71.9872 188.295 71.402C188.595 71.402 188.82 71.7678 189.045 71.9141C189.12 72.7187 188.445 73.2307 188.145 73.8891C187.77 74.6206 187.396 75.4983 186.646 75.9372C185.746 76.1567 184.996 76.7419 184.171 77.1808C183.346 77.5465 182.296 77.6928 181.321 77.4734C180.122 77.2539 178.472 76.9613 177.272 77.4734C176.672 77.8391 176.147 78.4974 175.547 78.8632C174.722 79.2289 173.972 79.8873 172.998 79.8141C172.323 79.6678 171.498 79.2289 170.898 79.8141C170.148 80.4725 169.998 81.6428 169.023 82.0817C167.898 82.6669 166.698 82.0817 165.574 82.0086C165.724 80.9113 165.873 79.8873 166.623 79.0826C167.073 79.0095 167.448 78.9363 167.823 78.6437C168.273 78.278 168.573 77.766 168.873 77.2539C169.848 76.6687 170.973 76.2298 171.573 75.2058C172.023 74.2548 172.023 73.377 172.773 72.4993L173.147 72.353L175.172 72.2067C175.997 71.8409 176.747 71.4752 177.497 70.89C177.722 70.6705 177.797 70.3048 177.722 69.9391C177.347 68.9881 177.047 68.3298 176.822 67.3057C176.597 66.2816 176.747 65.2576 176.597 64.0872C176.522 64.014 176.447 63.7946 176.297 63.7946C174.947 64.0872 173.672 64.4529 172.173 64.2335C170.148 64.014 168.048 62.6973 167.298 60.7223C166.623 59.0399 166.773 56.626 168.048 55.2362C169.248 53.7732 170.748 52.676 172.248 51.4325C172.473 51.2862 172.473 50.9936 172.548 50.7741C172.548 50.4815 172.248 50.2621 172.023 50.1158C171.123 49.8964 170.073 50.189 169.173 49.8232C167.598 49.3112 166.398 47.8482 166.173 46.2389C166.098 45.5074 166.248 44.9223 166.623 44.3371C167.823 45.3611 168.723 46.2389 169.848 46.5315ZM165.349 79.2289V79.4484C164.974 80.3262 164.749 81.3502 164.449 82.3743C163.774 82.3012 163.174 82.0817 162.649 81.8623C162.499 81.716 162.649 81.5697 162.649 81.4234C163.324 80.8382 163.099 80.1067 163.249 79.3021C163.324 78.8632 163.774 78.4974 164.224 78.278C164.749 78.3511 165.049 78.8632 165.349 79.2289ZM168.648 76.1567C168.273 76.8882 167.748 77.766 166.923 78.2049C166.623 78.278 166.248 78.278 165.948 78.1317C165.799 77.9854 165.499 77.8391 165.499 77.5465C165.574 77.2539 165.424 76.8882 165.724 76.7419C166.323 76.3761 166.923 76.0104 167.523 75.4983C167.673 75.4252 167.973 75.352 168.048 75.4983C168.348 75.7178 168.573 75.8641 168.648 76.1567ZM206.218 75.8641C206.293 76.1567 206.743 76.5224 206.443 76.815C205.843 77.2539 205.168 77.5465 204.343 77.4734C203.743 77.0345 203.818 76.2298 203.293 75.6446C203.143 75.2058 202.468 75.2057 202.618 74.7669L202.843 74.6206C203.668 74.6206 204.493 74.6206 205.318 74.4743C206.143 74.4011 205.918 75.352 206.218 75.8641ZM253.611 63.9409C254.061 64.5261 254.436 65.1113 254.736 65.8427C254.811 65.989 254.736 66.1353 254.661 66.2816C254.586 66.4279 254.436 66.5742 254.211 66.4279C253.686 66.2816 253.761 65.477 253.086 65.5501C252.637 65.5501 252.337 65.9159 251.962 66.1353C251.287 66.7205 250.387 67.3057 250.237 68.1835C250.087 68.4761 250.162 68.9881 249.862 69.1344C249.712 69.2076 249.487 69.0613 249.487 68.915C249.412 67.7446 249.787 66.6474 250.612 65.8427C251.437 65.1844 252.037 64.2335 252.712 63.4288C253.161 63.3557 253.461 63.6483 253.611 63.9409ZM253.911 73.6696C254.061 73.9622 254.361 74.328 254.136 74.6937C253.836 74.9132 253.311 74.7669 252.937 74.7669C252.487 74.5474 252.337 73.9622 252.337 73.4502C252.337 73.3039 252.337 73.2307 252.487 73.0845C253.011 73.0845 253.536 73.2307 253.911 73.6696ZM265.16 51.2862C265.385 51.5788 265.16 51.8714 265.01 52.0908C263.96 53.0417 262.685 54.0658 261.935 55.2362C261.635 55.6019 261.41 56.0408 261.26 56.4797C261.26 56.5529 261.185 56.5529 261.11 56.5529C260.885 55.9677 261.185 55.3093 261.335 54.7242C261.86 53.3343 263.06 52.0177 264.335 51.0667C264.485 50.9936 265.01 50.9204 265.16 51.2862ZM269.434 46.6047C270.259 47.1167 270.559 48.2139 271.534 48.4334C273.184 48.7991 274.833 49.1649 276.333 49.8964C277.383 50.4084 278.358 51.1399 279.333 51.9445C280.233 52.3834 281.358 52.3834 282.332 52.676C283.757 53.0417 284.882 54.0658 286.157 54.8705C287.807 56.114 290.131 55.9677 292.006 56.7723C295.006 57.7233 297.405 59.9909 300.18 61.3075C301.605 62.039 303.779 62.3316 305.204 61.527C306.179 60.8686 306.779 59.9909 306.554 58.7473C306.029 55.7482 302.655 54.2121 301.08 51.7251C300.78 51.1399 300.555 50.3352 300.705 49.6769C301.305 48.2139 302.88 47.4093 304.229 46.8973C305.279 46.3852 306.629 46.5315 307.604 45.9463C307.979 45.7269 308.279 45.4343 308.504 45.2148C308.729 45.2148 308.729 45.4343 308.804 45.5806C309.104 47.3362 308.804 49.1649 307.229 50.189C306.629 50.6278 305.879 50.7741 305.204 50.9204C304.604 51.1399 303.405 50.701 303.48 51.7251C303.63 52.2371 304.079 52.5297 304.454 52.8954C306.554 54.5779 308.504 56.7723 308.729 59.4057C308.804 61.4538 307.379 63.2094 305.579 64.0872C304.229 64.5992 302.58 64.8187 301.155 64.4529C300.78 64.3798 300.18 64.014 299.88 64.5261C299.805 65.1113 300.18 65.5501 300.18 66.0622C300.33 67.0131 300.33 68.2566 300.03 69.2076C299.88 69.9391 299.13 70.8168 299.805 71.5483C300.48 72.5724 301.83 72.2798 302.955 72.4261C303.555 72.4993 303.779 73.1576 303.929 73.5965C304.154 74.1817 304.154 74.84 304.379 75.2789C304.379 76.3761 305.654 76.815 306.254 77.5465C307.004 78.3511 307.679 79.741 308.954 79.6678C309.404 80.5456 309.629 81.3502 309.779 82.3743L309.629 82.5206C308.579 82.5206 307.154 82.8132 306.404 82.0817C305.504 81.4965 305.204 79.8873 303.854 80.3262C303.255 80.765 302.43 80.9113 301.755 80.6187C301.08 80.3993 300.63 79.8141 300.03 79.4484C298.23 78.1317 295.831 77.4734 293.506 77.9854C292.156 78.3511 291.106 77.4002 290.056 76.815C288.632 76.2298 288.257 74.7669 287.957 73.5233L287.732 71.9872C287.732 71.8409 287.882 71.6946 288.032 71.6215H288.257C289.082 73.4502 290.656 75.4984 292.681 76.1567C294.556 76.8882 296.281 75.9372 298.305 76.303C300.18 76.5224 301.68 77.6928 303.105 78.79C303.255 78.79 303.33 78.7169 303.405 78.5706V78.4243C301.68 76.303 299.28 75.2058 296.505 75.4252C294.181 75.8641 291.931 75.1326 290.581 73.2307C289.831 72.1335 289.306 70.9631 289.082 69.7196C288.857 68.2566 288.557 66.6474 288.032 65.3307C287.882 65.2576 287.732 65.1113 287.582 65.1844L287.432 65.4039C287.657 66.7937 288.107 68.4761 287.582 69.9391C287.207 71.1094 286.007 71.5483 284.882 71.6215C283.757 71.6946 282.707 71.4752 281.508 71.4752C278.808 71.402 276.408 72.4261 273.634 72.2067C273.859 71.5483 274.309 70.89 274.084 70.1585C274.009 70.0122 273.784 70.0122 273.634 70.0122C273.109 70.3048 273.184 70.9631 272.884 71.402C272.284 72.353 271.159 73.2307 270.034 73.4502C269.209 74.0354 268.459 74.84 267.784 75.5715C267.559 75.7909 267.559 76.2298 267.634 76.5224C268.159 77.8391 269.734 77.9854 270.934 78.3511C271.534 78.4243 272.059 78.2048 272.359 77.6928C272.884 76.8882 272.959 75.5715 274.159 75.4252H276.783C277.008 75.4984 277.158 75.6446 277.308 75.8641L277.233 76.2298C276.633 76.8882 276.408 77.8391 275.658 78.278C275.208 78.4243 274.683 78.278 274.384 78.6437C274.234 79.5215 274.009 80.4725 273.109 80.9113C272.434 81.4965 271.459 81.2039 270.709 80.9845C269.284 80.4724 267.859 80.1799 266.435 79.741C265.835 79.5947 265.61 78.8632 264.935 78.7169C264.335 78.5706 263.66 79.0095 263.135 78.4974C262.835 77.8391 262.685 77.4002 262.535 76.6687C262.31 76.2298 262.16 75.7178 262.085 75.2058C262.01 74.7669 262.085 74.4743 262.235 74.1085L264.185 70.6705C264.335 70.4511 264.485 70.2317 264.71 70.1585C265.16 70.2317 265.685 70.4511 266.135 70.6705L266.06 70.89L264.035 73.8891C263.585 74.84 264.035 75.9372 264.485 76.7419C264.56 76.815 264.635 76.9613 264.71 76.8882C264.635 76.303 264.56 75.7178 264.71 75.0595C264.86 74.4743 265.235 73.9622 265.535 73.4502L267.11 71.1826C267.26 70.8168 267.26 70.2316 266.96 69.8659C266.285 69.2076 265.31 68.9881 264.71 68.1103C263.435 66.4279 263.285 64.4529 263.135 62.3316C263.135 62.1853 262.985 61.9659 262.76 61.8927C262.61 61.8196 262.46 62.039 262.385 62.1122C262.01 63.502 262.235 65.1844 262.61 66.4279C262.835 67.3789 263.285 68.3298 263.735 69.2076C263.81 69.3539 263.66 69.5733 263.51 69.6465C262.46 69.7196 261.41 69.6465 260.435 69.5002C259.086 69.2807 258.111 68.2566 256.986 67.452C256.836 67.3789 256.761 67.5252 256.686 67.5983C256.986 69.0613 258.636 69.9391 259.161 71.2557C259.461 72.353 260.585 73.1576 260.81 74.328C260.81 74.4743 260.66 74.6937 260.51 74.7669C260.135 74.84 259.761 74.6206 259.386 74.84C259.311 75.4983 259.761 76.1567 259.461 76.7419C259.086 77.3271 258.561 77.9854 257.886 77.9854C256.536 77.5465 255.186 76.9613 253.836 76.5956C252.862 76.5224 251.887 76.6687 250.987 76.7419C250.087 76.5956 249.487 75.7909 248.812 75.352C248.587 75.2789 248.362 75.2789 248.212 75.4252C246.712 76.8882 245.063 78.4974 242.813 78.4243C242.663 78.4243 242.588 78.278 242.588 78.1317V77.9854C243.563 77.1076 244.763 76.2298 245.213 74.9863C245.513 73.9622 246.412 73.2307 246.787 72.2798C246.862 72.1335 246.712 72.0604 246.562 71.9872L246.337 72.1335C245.213 73.2307 244.388 74.4743 243.563 75.6446C242.738 76.4493 241.538 76.9613 240.263 76.6687C240.113 76.5956 240.113 76.3761 240.188 76.2298C244.838 73.4502 245.363 68.4761 246.637 63.9409C247.537 60.9418 248.212 57.8695 250.612 55.4556C254.211 51.5788 258.711 49.3112 262.685 45.9463C263.285 45.4343 263.885 44.9223 264.635 44.9223C266.585 44.776 268.084 45.5074 269.434 46.6047ZM312.253 78.9363C312.628 79.4484 312.478 80.253 312.628 80.8382C312.703 81.2771 313.303 81.6428 313.003 82.0817L311.353 82.5938C311.053 82.5938 311.203 82.228 311.053 82.0817C310.904 81.1308 310.679 80.4724 310.379 79.5947C310.304 79.0826 310.829 78.7169 311.203 78.4243C311.578 78.278 311.878 78.7169 312.253 78.9363ZM308.429 75.6446C309.029 76.1567 309.854 76.5224 310.304 77.1808C310.379 77.4734 310.154 77.766 310.004 77.9854C309.779 78.2048 309.479 78.3511 309.104 78.3511C308.729 78.3511 308.429 78.1317 308.204 77.8391C307.829 77.2539 307.304 76.7419 307.154 76.1567C307.379 75.7909 307.904 75.2058 308.429 75.6446ZM272.284 75.0595C272.209 75.7909 271.984 76.4493 271.684 77.1076C271.459 77.5465 270.784 77.4002 270.334 77.3271C269.884 77.1808 269.134 77.1076 269.059 76.4493C268.984 75.8641 269.284 75.2789 269.584 74.84C270.259 74.7669 271.084 74.9132 271.759 74.7669C272.059 74.7669 272.284 74.84 272.284 75.0595Z" fill="#8B5D9A"/>
<path d="M11.3125 246.188H19.4688L30.3438 281.5L32.1875 289.125L33.9688 281.469L44.4688 246.188H52.25L59.9688 294H54.6562L48.8438 257.875L47.9688 249.438L46.0625 257.938L35.2812 293.969H29.125L17.875 257.75L15.6562 249.438L14.5938 257.812L9.3125 294H3.9375L11.3125 246.188ZM87.2188 294.625C79.8021 294.625 74.9062 292.292 72.5312 287.625C71.1354 284.917 70.3125 281.302 70.0625 276.781C69.9583 274.656 69.9062 272.344 69.9062 269.844C69.9062 267.344 69.9792 264.979 70.125 262.75C70.2708 260.5 70.5521 258.469 70.9688 256.656C71.4062 254.844 72.0104 253.25 72.7812 251.875C73.5729 250.479 74.6042 249.312 75.875 248.375C78.5 246.5 82.2812 245.562 87.2188 245.562H89.1562C96.8854 245.562 101.833 247.646 104 251.812C105.354 254.417 106.115 258.042 106.281 262.688C106.365 264.958 106.406 267.365 106.406 269.906C106.406 272.427 106.344 274.76 106.219 276.906C106.094 279.031 105.833 281 105.438 282.812C105.042 284.625 104.458 286.26 103.688 287.719C102.938 289.177 101.917 290.417 100.625 291.438C97.9583 293.562 94.1354 294.625 89.1562 294.625H87.2188ZM89.0938 290.125C91.3854 290.125 93.2812 289.875 94.7812 289.375C96.3021 288.875 97.5 288 98.375 286.75C100 284.438 100.812 280 100.812 273.438V270.062C100.812 266.917 100.729 264.115 100.562 261.656C100.396 259.198 99.9479 257.125 99.2188 255.438C97.7188 251.938 94.4688 250.188 89.4688 250.188H86.8438C81.7604 250.188 78.5104 251.823 77.0938 255.094C76.1979 257.177 75.7083 259.635 75.625 262.469C75.5417 265.302 75.5 267.833 75.5 270.062V273.438C75.5 279.583 76.4167 283.917 78.25 286.438C80.0208 288.896 83.0104 290.125 87.2188 290.125H89.0938ZM125.188 250.812H112.438V246.188H143.688V250.812H130.5V294H125.188V250.812ZM167.156 294.625C159.74 294.625 154.844 292.292 152.469 287.625C151.073 284.917 150.25 281.302 150 276.781C149.896 274.656 149.844 272.344 149.844 269.844C149.844 267.344 149.917 264.979 150.062 262.75C150.208 260.5 150.49 258.469 150.906 256.656C151.344 254.844 151.948 253.25 152.719 251.875C153.51 250.479 154.542 249.312 155.812 248.375C158.438 246.5 162.219 245.562 167.156 245.562H169.094C176.823 245.562 181.771 247.646 183.938 251.812C185.292 254.417 186.052 258.042 186.219 262.688C186.302 264.958 186.344 267.365 186.344 269.906C186.344 272.427 186.281 274.76 186.156 276.906C186.031 279.031 185.771 281 185.375 282.812C184.979 284.625 184.396 286.26 183.625 287.719C182.875 289.177 181.854 290.417 180.562 291.438C177.896 293.562 174.073 294.625 169.094 294.625H167.156ZM169.031 290.125C171.323 290.125 173.219 289.875 174.719 289.375C176.24 288.875 177.438 288 178.312 286.75C179.938 284.438 180.75 280 180.75 273.438V270.062C180.75 266.917 180.667 264.115 180.5 261.656C180.333 259.198 179.885 257.125 179.156 255.438C177.656 251.938 174.406 250.188 169.406 250.188H166.781C161.698 250.188 158.448 251.823 157.031 255.094C156.135 257.177 155.646 259.635 155.562 262.469C155.479 265.302 155.438 267.833 155.438 270.062V273.438C155.438 279.583 156.354 283.917 158.188 286.438C159.958 288.896 162.948 290.125 167.156 290.125H169.031ZM199.375 246.344C206.146 245.823 211.833 245.562 216.438 245.562H217.062C222.083 245.562 225.604 246.688 227.625 248.938C229.312 250.875 230.156 254.042 230.156 258.438C230.156 264.062 229.354 268.25 227.75 271C226.104 273.792 223.375 275.542 219.562 276.25C220.271 277.125 220.969 278.042 221.656 279L223.5 281.656L231.719 294H225.469L218.281 282.688C216.281 279.646 214.802 277.635 213.844 276.656H213.5C212.021 276.635 210.594 276.604 209.219 276.562L204.688 276.375V294H199.375V246.344ZM204.688 272.156C206.875 272.26 210.312 272.312 215 272.312C218.854 272.312 221.479 271.229 222.875 269.062C224.062 267.167 224.656 263.854 224.656 259.125C224.656 255.146 223.771 252.542 222 251.312C220.958 250.583 219.812 250.177 218.562 250.094C217.333 250.01 216.25 249.969 215.312 249.969C214.396 249.969 213.5 249.979 212.625 250C211.771 250 210.917 250.01 210.062 250.031C209.208 250.052 208.344 250.083 207.469 250.125L204.688 250.312V272.156ZM257.781 294.625C250.365 294.625 245.469 292.292 243.094 287.625C241.698 284.917 240.875 281.302 240.625 276.781C240.521 274.656 240.469 272.344 240.469 269.844C240.469 267.344 240.542 264.979 240.688 262.75C240.833 260.5 241.115 258.469 241.531 256.656C241.969 254.844 242.573 253.25 243.344 251.875C244.135 250.479 245.167 249.312 246.438 248.375C249.062 246.5 252.844 245.562 257.781 245.562H259.719C267.448 245.562 272.396 247.646 274.562 251.812C275.917 254.417 276.677 258.042 276.844 262.688C276.927 264.958 276.969 267.365 276.969 269.906C276.969 272.427 276.906 274.76 276.781 276.906C276.656 279.031 276.396 281 276 282.812C275.604 284.625 275.021 286.26 274.25 287.719C273.5 289.177 272.479 290.417 271.188 291.438C268.521 293.562 264.698 294.625 259.719 294.625H257.781ZM259.656 290.125C261.948 290.125 263.844 289.875 265.344 289.375C266.865 288.875 268.062 288 268.938 286.75C270.562 284.438 271.375 280 271.375 273.438V270.062C271.375 266.917 271.292 264.115 271.125 261.656C270.958 259.198 270.51 257.125 269.781 255.438C268.281 251.938 265.031 250.188 260.031 250.188H257.406C252.323 250.188 249.073 251.823 247.656 255.094C246.76 257.177 246.271 259.635 246.188 262.469C246.104 265.302 246.062 267.833 246.062 270.062V273.438C246.062 279.583 246.979 283.917 248.812 286.438C250.583 288.896 253.573 290.125 257.781 290.125H259.656ZM305.719 294.625C298.302 294.625 293.406 292.292 291.031 287.625C289.635 284.917 288.812 281.302 288.562 276.781C288.458 274.656 288.406 272.344 288.406 269.844C288.406 267.344 288.479 264.979 288.625 262.75C288.771 260.5 289.052 258.469 289.469 256.656C289.906 254.844 290.51 253.25 291.281 251.875C292.073 250.479 293.104 249.312 294.375 248.375C297 246.5 300.781 245.562 305.719 245.562H307.656C315.385 245.562 320.333 247.646 322.5 251.812C323.854 254.417 324.615 258.042 324.781 262.688C324.865 264.958 324.906 267.365 324.906 269.906C324.906 272.427 324.844 274.76 324.719 276.906C324.594 279.031 324.333 281 323.938 282.812C323.542 284.625 322.958 286.26 322.188 287.719C321.438 289.177 320.417 290.417 319.125 291.438C316.458 293.562 312.635 294.625 307.656 294.625H305.719ZM307.594 290.125C309.885 290.125 311.781 289.875 313.281 289.375C314.802 288.875 316 288 316.875 286.75C318.5 284.438 319.312 280 319.312 273.438V270.062C319.312 266.917 319.229 264.115 319.062 261.656C318.896 259.198 318.448 257.125 317.719 255.438C316.219 251.938 312.969 250.188 307.969 250.188H305.344C300.26 250.188 297.01 251.823 295.594 255.094C294.698 257.177 294.208 259.635 294.125 262.469C294.042 265.302 294 267.833 294 270.062V273.438C294 279.583 294.917 283.917 296.75 286.438C298.521 288.896 301.51 290.125 305.719 290.125H307.594ZM341.875 246.188H350.031L360.906 281.5L362.75 289.125L364.531 281.469L375.031 246.188H382.812L390.531 294H385.219L379.406 257.875L378.531 249.438L376.625 257.938L365.844 293.969H359.688L348.438 257.75L346.219 249.438L345.156 257.812L339.875 294H334.5L341.875 246.188Z" fill="black"/>
</svg>
