<svg width="45" height="45" viewBox="0 0 45 45" fill="none" xmlns="http://www.w3.org/2000/svg">
<path d="M26.3047 22.4561H18.6951C11.2121 22.4561 5.12305 28.5442 5.12305 36.0281V45H39.8768V36.0281C39.8768 28.5442 33.7877 22.4561 26.3047 22.4561ZM7.75977 42.3633V36.0281C7.75977 29.998 12.6658 25.0928 18.6951 25.0928H26.3047C32.334 25.0928 37.24 29.998 37.24 36.0281V42.3633H7.75977Z" fill="black"/>
<path d="M22.4999 0C16.7132 0 12.0049 4.7083 12.0049 10.495C12.0049 16.2817 16.7132 20.99 22.4999 20.99C28.2866 20.99 32.9949 16.2817 32.9949 10.495C32.9949 4.7083 28.2866 0 22.4999 0ZM22.4999 18.3533C18.1669 18.3533 14.6416 14.828 14.6416 10.495C14.6416 6.16201 18.1669 2.63672 22.4999 2.63672C26.8329 2.63672 30.3582 6.16201 30.3582 10.495C30.3582 14.828 26.8329 18.3533 22.4999 18.3533Z" fill="black"/>
</svg>
